<svg width="250" height="250" viewBox="0 0 250 250" xmlns="http://www.w3.org/2000/svg"><title>mark</title><defs><linearGradient x1="50%" y1="100%" x2="50%" y2="0%" id="a"><stop stop-color="#fff" stop-opacity=".73" offset="0%"/><stop stop-color="#fff" offset="100%"/></linearGradient></defs><path d="M125 0c-69.063 0-125 55.938-125 125 0 69.063 55.938 125 125 125 69.063 0 125-55.938 125-125 0-69.063-55.938-125-125-125zm-2.969 138.75h-54.063c-6.094 0-10.938-4.844-10.938-10.938s4.844-10.938 10.938-10.938h54.063c6.094 0 10.938 4.844 10.938 10.938s-5 10.938-10.938 10.938zm67.188-3.125l-38.594 36.719c-2.188 2.031-4.844 2.969-7.5 2.969-2.969 0-5.781-1.094-7.969-3.438-4.219-4.375-3.906-11.25.469-15.469l30-28.438-31.094-27.5c-4.531-4.063-5-10.938-.938-15.469 4.063-4.531 10.938-5 15.469-.938l39.844 35.313c2.344 2.031 3.594 5 3.75 7.969.156 2.969-1.25 6.25-3.438 8.281z" fill="url(#a)"/></svg>
