<svg version="1.1" xmlns="http://www.w3.org/2000/svg">
  <defs>
    <path id="rss" d="M1 0v1c3.32 0 6 2.68 6 6h1c0-3.86-3.14-7-7-7zm0 2v1c2.221 0 4 1.779 4 4h1c0-2.759-2.241-5-5-5zm0 2v1c1.109 0 2 .891 2 2h1c0-1.651-1.349-3-3-3zm0 2c-.552 0-1 .448-1 1s.448 1 1 1 1-.448 1-1-.448-1-1-1z" />
    <path id="envelope" d="M0 1v1l4 2 4-2v-1h-8zm0 2v4h8v-4l-4 2-4-2z" />
    <path id="download" d="M4.5 0c-1.21 0-2.27.86-2.5 2-1.1 0-2 .9-2 2 0 .37.111.7.281 1h2.719v-.5c0-.83.67-1.5 1.5-1.5s1.5.67 1.5 1.5v.5h1.906c.05-.16.094-.32.094-.5 0-.65-.42-1.29-1-1.5v-.5c0-1.38-1.12-2.5-2.5-2.5zm-.156 4a.5.5 0 0 0-.344.5v1.5h-1.5l2 2 2-2h-1.5v-1.5a.5.5 0 0 0-.594-.5.5.5 0 0 0-.063 0z" />
    <path id="dollar" d="M3 0v1h-.75c-.686 0-1.25.564-1.25 1.25v.5c0 .678.437 1.242 1.094 1.406l2.563.656c.143.036.344.296.344.438v.5c0 .134-.116.25-.25.25h-2.5c-.116 0-.212-.037-.25-.063v-.938h-1v1c0 .342.203.627.438.781.234.155.518.219.813.219h.75v1h1v-1h.75c.686 0 1.25-.564 1.25-1.25v-.5c0-.678-.437-1.242-1.094-1.406l-2.563-.656c-.143-.036-.344-.296-.344-.438v-.5c0-.134.116-.25.25-.25h2.5c.116 0 .212.037.25.063v.938h1v-1c0-.342-.203-.627-.438-.781-.234-.155-.518-.219-.813-.219h-.75v-1h-1z" />
    <path id="heart" d="M2 1c-.55 0-1.046.224-1.406.594-.37.36-.594.856-.594 1.406 0 .55.224 1.046.594 1.406l3.406 3.438 3.406-3.438c.37-.37.594-.856.594-1.406 0-.55-.224-1.046-.594-1.406-.36-.37-.856-.594-1.406-.594-.55 0-1.046.224-1.406.594-.37.36-.594.856-.594 1.406 0-.55-.224-1.046-.594-1.406-.36-.37-.856-.594-1.406-.594z" />
    <path id="bitcoin" d="M4.92574757,4.63184466 C4.92592233,5.05763107 4.24015534,5.04586408 3.82238835,5.04586408 L3.82238835,4.21421359 C4.25834951,4.20559223 4.92578641,4.19370874 4.92574757,4.63184466 L4.92574757,4.63184466 Z M4.72559223,3.29497087 C4.72551456,2.90947573 4.21547573,2.92091262 3.82236893,2.92091262 L3.82236893,3.66840777 C4.20170874,3.66842718 4.72547573,3.66574757 4.72559223,3.29497087 L4.72559223,3.29497087 Z M8,4 C8,6.20914563 6.20914563,8 4,8 C1.79085437,8 0,6.20914563 0,4 C0,1.79085437 1.79085437,0 4,0 C6.20914563,0 8,1.79085437 8,4 L8,4 Z M5.35516505,3.80823301 C5.77031068,3.51087379 5.93897087,2.46025243 4.59656311,2.32180583 L4.59654369,1.66761165 L4.05285437,1.66761165 L4.0528932,2.30264078 L3.82238835,2.30264078 L3.82238835,1.66761165 L3.2791068,1.66761165 L3.27891262,2.30264078 L2.41128155,2.30264078 L2.41141748,2.89079612 L2.81456311,2.89056311 C2.9464466,2.89060194 2.97149515,2.95269903 2.97149515,3.03384466 L2.97149515,4.8916699 C2.97149515,4.99495146 2.92149515,5.04551456 2.80984466,5.04551456 L2.50551456,5.04551456 L2.40128155,5.6752233 L3.27902913,5.6752233 L3.27920388,6.33240777 L3.82240777,6.33240777 L3.82240777,5.6752233 L4.05291262,5.6752233 L4.05271845,6.33240777 L4.59642718,6.33240777 L4.59642718,5.6731068 C6.24108738,5.56023301 6.15318447,4.08413592 5.35516505,3.80823301 L5.35516505,3.80823301 Z" />
  </defs>
</svg>
