<svg version="1.1" xmlns="http://www.w3.org/2000/svg">
  <defs>
    <path id="rss" d="M1 0v1c3.32 0 6 2.68 6 6h1c0-3.86-3.14-7-7-7zm0 2v1c2.221 0 4 1.779 4 4h1c0-2.759-2.241-5-5-5zm0 2v1c1.109 0 2 .891 2 2h1c0-1.651-1.349-3-3-3zm0 2c-.552 0-1 .448-1 1s.448 1 1 1 1-.448 1-1-.448-1-1-1z" />
    <path id="envelope" d="M0 1v1l4 2 4-2v-1h-8zm0 2v4h8v-4l-4 2-4-2z" />
    <path id="download" d="M4.5 0c-1.21 0-2.27.86-2.5 2-1.1 0-2 .9-2 2 0 .37.111.7.281 1h2.719v-.5c0-.83.67-1.5 1.5-1.5s1.5.67 1.5 1.5v.5h1.906c.05-.16.094-.32.094-.5 0-.65-.42-1.29-1-1.5v-.5c0-1.38-1.12-2.5-2.5-2.5zm-.156 4a.5.5 0 0 0-.344.5v1.5h-1.5l2 2 2-2h-1.5v-1.5a.5.5 0 0 0-.594-.5.5.5 0 0 0-.063 0z" />
    <path id="dollar" d="M3 0v1h-.75c-.686 0-1.25.564-1.25 1.25v.5c0 .678.437 1.242 1.094 1.406l2.563.656c.143.036.344.296.344.438v.5c0 .134-.116.25-.25.25h-2.5c-.116 0-.212-.037-.25-.063v-.938h-1v1c0 .342.203.627.438.781.234.155.518.219.813.219h.75v1h1v-1h.75c.686 0 1.25-.564 1.25-1.25v-.5c0-.678-.437-1.242-1.094-1.406l-2.563-.656c-.143-.036-.344-.296-.344-.438v-.5c0-.134.116-.25.25-.25h2.5c.116 0 .212.037.25.063v.938h1v-1c0-.342-.203-.627-.438-.781-.234-.155-.518-.219-.813-.219h-.75v-1h-1z" />
    <path id="bitcoin" d="M4.9,3.3C5,2.7,5,2,4.9,1.7C4.8,1.3,4.5,1,4,1h0V0H3v1H2V0H1v1H0v1h1v4L0,6l0,1l1,0v1h1V7l1,0v1h1V7l0.5,0 C5,7,5.4,6.6,5.4,6.1C5.7,4.2,5.5,3.7,4.9,3.3z M4,2C4,2.4,4,3.1,4,3.1L2,3.2V2H4z M4.2,6L2,6V4.2c1-0.1,1.6-0.1,2.1,0 c0.3,0,0.4,0.2,0.4,0.5c0,0.2,0,0.5,0,0.9C4.5,5.8,4.4,6,4.2,6z"/>
    <path id="twitter" d="M8.1,0.8C7.8,0.9,7.5,1,7.1,1c0.3-0.2,0.6-0.5,0.7-0.9C7.5,0.3,7.2,0.4,6.8,0.5C6.5,0.2,6.1,0,5.6,0 C4.5,0,3.7,1,4,2C2.6,2,1.4,1.3,0.6,0.3C0.1,1,0.3,2,1.1,2.5c-0.3,0-0.5-0.1-0.8-0.2c0,0.8,0.5,1.5,1.3,1.6C1.4,4,1.2,4,0.9,4 c0.2,0.7,0.8,1.1,1.5,1.1C1.8,5.7,0.9,5.9,0,5.8c0.7,0.5,1.6,0.7,2.5,0.7c3.1,0,4.8-2.6,4.7-4.9C7.6,1.4,7.8,1.1,8.1,0.8z"/>
  </defs>
</svg>
