<svg xmlns="http://www.w3.org/2000/svg">
  <defs>
    <path id="rss" d="M1 0v1c3.32 0 6 2.68 6 6h1c0-3.86-3.14-7-7-7zm0 2v1c2.221 0 4 1.779 4 4h1c0-2.759-2.241-5-5-5zm0 2v1c1.109 0 2 .891 2 2h1c0-1.651-1.349-3-3-3zm0 2c-.552 0-1 .448-1 1s.448 1 1 1 1-.448 1-1-.448-1-1-1z"/>
    <path id="envelope" d="M0 1v1l4 2 4-2v-1h-8zm0 2v4h8v-4l-4 2-4-2z"/>
    <path id="download" d="M4.5 0c-1.21 0-2.27.86-2.5 2-1.1 0-2 .9-2 2 0 .37.111.7.281 1h2.719v-.5c0-.83.67-1.5 1.5-1.5s1.5.67 1.5 1.5v.5h1.906c.05-.16.094-.32.094-.5 0-.65-.42-1.29-1-1.5v-.5c0-1.38-1.12-2.5-2.5-2.5zm-.156 4a.5.5 0 0 0-.344.5v1.5h-1.5l2 2 2-2h-1.5v-1.5a.5.5 0 0 0-.594-.5.5.5 0 0 0-.063 0z"/>
    <path id="heart" d="M2 1c-.55 0-1.046.224-1.406.594-.37.36-.594.856-.594 1.406 0 .55.224 1.046.594 1.406l3.406 3.438 3.406-3.438c.37-.37.594-.856.594-1.406 0-.55-.224-1.046-.594-1.406-.36-.37-.856-.594-1.406-.594-.55 0-1.046.224-1.406.594-.37.36-.594.856-.594 1.406 0-.55-.224-1.046-.594-1.406-.36-.37-.856-.594-1.406-.594z"/>
    <path id="bitcoin" d="M4.926 4.632c0 .426-.686.414-1.103.414v-.832c.436-.009 1.103-.021 1.103.418zm-.2-1.337c0-.385-.51-.374-.903-.374v.747c.379 0 .903-.003.903-.373zm3.274.705c0 2.209-1.791 4-4 4s-4-1.791-4-4 1.791-4 4-4 4 1.791 4 4zm-2.645-.192c.415-.297.584-1.348-.759-1.486v-.654h-.544v.635h-.231v-.635h-.543v.635h-.868v.588h.403c.132 0 .157.062.157.143v1.858c0 .103-.05.154-.162.154h-.304l-.104.63h.878v.657h.543v-.657h.231v.657h.544v-.659c1.645-.113 1.557-1.589.759-1.865z"/>
    <path id="swift" d="M7.281 4.923s.367.413.549.925c.183.511.182 1.139.148 1.156-.034.017-.462-.711-1.214-.711s-1.133.711-2.464.711c-2.999 0-4.3-2.441-4.3-2.441s1.319.938 2.701.904c1.382-.034 1.765-.43 1.765-.43s-.618-.511-1.682-1.544-2.062-2.452-2.062-2.452 1.602 1.262 2.119 1.632c.514.372 1.029.706 1.029.706s-.497-.533-.85-.962c-.352-.431-1.249-1.723-1.249-1.723s1.377 1.234 2.004 1.724 1.825 1.315 1.825 1.315.723-1.635-.677-3.733c3.397 2.18 2.358 4.923 2.358 4.923z"/>
  </defs>
</svg>
