<?xml version="1.0" encoding="utf-8"?>
<!DOCTYPE svg PUBLIC "-//W3C//DTD SVG 1.1//EN" "http://www.w3.org/Graphics/SVG/1.1/DTD/svg11.dtd">
<svg version="1.1" id="logo" xmlns="http://www.w3.org/2000/svg" xmlns:xlink="http://www.w3.org/1999/xlink" x="0px" y="0px"
  viewBox="78 0 678 595" enable-background="new 78 0 678 595" xml:space="preserve">
  <path id="shape" fill="red" stroke="#FFFFFF" stroke-width="0" stroke-linecap="round" stroke-linejoin="round" stroke-miterlimit="10" d="
    M492.5,5.6c280.7,181.6,194.8,410,194.8,410s30.3,34.4,45.4,77c15.1,42.6,15,94.9,12.2,96.3s-38.2-59.2-100.3-59.2
    s-93.6,59.2-203.6,59.2c-247.8,0-355.3-203.3-355.3-203.3s109,78.1,223.2,75.3s145.8-35.8,145.8-35.8s-51.1-42.6-139-128.6
    S145.3,92.3,145.3,92.3s132.4,105.1,175.1,135.9c42.5,31,85,58.8,85,58.8s-41.1-44.4-70.2-80.1C306.1,171,232,63.4,232,63.4
    S345.8,166.2,397.6,207s150.8,109.5,150.8,109.5S608.1,180.3,492.5,5.6z"/>
</svg>
